<svg width="41" height="39" viewBox="0 0 41 39" fill="none" xmlns="http://www.w3.org/2000/svg">
<path d="M39.5 23.6373C39.5 25.018 38.3807 26.1373 37 26.1373L4.65356 26.1373C3.27285 26.1373 2.15356 25.018 2.15356 23.6373L2.15357 4.08367C2.15357 2.70296 3.27286 1.58367 4.65357 1.58367L37 1.58367C38.3807 1.58367 39.5 2.70296 39.5 4.08367L39.5 23.6373Z" fill="white" stroke="#152C5B" stroke-width="3"/>
<path fill-rule="evenodd" clip-rule="evenodd" d="M22.4078 27.2625C22.0713 26.5055 22.4122 25.6191 23.1693 25.2826C23.9263 24.9462 24.8127 25.2871 25.1492 26.0441L29.0854 34.9007C29.4219 35.6577 29.0809 36.5441 28.3239 36.8806C27.5669 37.217 26.6805 36.8761 26.344 36.1191L22.4078 27.2625ZM19.2448 27.2625C19.5812 26.5055 19.2403 25.6191 18.4833 25.2826C17.7263 24.9462 16.8398 25.2871 16.5034 26.0441L12.5671 34.9007C12.2307 35.6577 12.5716 36.5441 13.3286 36.8806C14.0857 37.217 14.9721 36.8761 15.3086 36.1191L19.2448 27.2625Z" fill="#152C5B"/>
<circle cx="33.1548" cy="8.96254" r="1.5" stroke="#DF136C" stroke-width="1.48294"/>
<circle cx="33.1548" cy="14.5662" r="1.5" stroke="#DF136C" stroke-width="1.48294"/>
<circle cx="33.1548" cy="20.1698" r="1.5" stroke="#DF136C" stroke-width="1.48294"/>
<path d="M6.25732 36.9808H33.7153" stroke="#152C5B" stroke-width="3" stroke-linecap="round"/>
</svg>
