<svg width="40" height="40" viewBox="0 0 40 40" fill="none" xmlns="http://www.w3.org/2000/svg">
<path d="M37.9088 35.0725L37.9089 35.0725C38.697 35.8576 38.697 37.1359 37.9088 37.9211C37.1253 38.7016 35.8198 38.6758 35.0589 37.9461L21.8151 23.1932L20.7597 22.0175L19.6403 23.1326L18.8049 23.9649L5.50353 10.714C4.44602 9.66053 3.77894 8.19861 3.63499 6.42256L3.63499 6.42256C3.51594 4.95373 3.75371 3.3083 4.35765 1.64859L22.1643 19.3876L37.9088 35.0725Z" stroke="#152C5B" stroke-width="3"/>
<mask id="path-2-inside-1" fill="white">
<path fill-rule="evenodd" clip-rule="evenodd" d="M31.9338 13.0156L38.2893 6.66009L39.9474 8.31814L31.6575 16.6079C30.6434 17.6221 29.2968 18.2278 27.8657 18.3132C27.5032 18.3348 27.1465 18.4169 26.8073 18.5534L21.4222 13.1683C21.5585 12.8291 21.6407 12.4724 21.6623 12.1099C21.748 10.6788 22.3535 9.3322 23.3677 8.31806L31.6575 0.0281982L33.3154 1.68609L26.9599 8.04157L28.6178 9.69954L34.9733 3.34406L36.6313 5.00204L30.2757 11.3576L31.9338 13.0156ZM1.02844 33.9729L12.2324 22.7689L17.2064 27.7426L6.00228 38.9467C4.58462 40.3644 2.3311 40.2494 1.02844 38.9467C-0.342813 37.5755 -0.342813 35.3441 1.02844 33.9729Z"/>
</mask>
<path d="M38.2893 6.66009L40.4106 4.53877L38.2893 2.41746L36.168 4.53875L38.2893 6.66009ZM31.9338 13.0156L29.8125 15.1369L31.9338 17.2581L34.0551 15.1369L31.9338 13.0156ZM39.9474 8.31814L42.0687 10.4395L44.19 8.31815L42.0687 6.19682L39.9474 8.31814ZM31.6575 16.6079L29.5362 14.4866L29.5362 14.4866L31.6575 16.6079ZM27.8657 18.3132L27.687 15.3185L27.6869 15.3185L27.8657 18.3132ZM26.8073 18.5534L24.686 20.6747L26.0878 22.0766L27.9271 21.3366L26.8073 18.5534ZM21.4222 13.1683L18.6386 12.0496L17.8996 13.8884L19.3009 15.2896L21.4222 13.1683ZM21.6623 12.1099L18.6677 11.9307L18.6677 11.9311L21.6623 12.1099ZM23.3677 8.31806L25.489 10.4394L25.489 10.4394L23.3677 8.31806ZM31.6575 0.0281982L33.7788 -2.09312L31.6575 -4.21444L29.5362 -2.09312L31.6575 0.0281982ZM33.3154 1.68609L35.4367 3.80743L37.5581 1.6861L35.4367 -0.43523L33.3154 1.68609ZM26.9599 8.04157L24.8385 5.92024L22.7172 8.04156L24.8385 10.1629L26.9599 8.04157ZM28.6178 9.69954L26.4965 11.8209L28.6178 13.9422L30.7391 11.8209L28.6178 9.69954ZM34.9733 3.34406L37.0946 1.22274L34.9733 -0.898578L32.852 1.22274L34.9733 3.34406ZM36.6313 5.00204L38.7526 7.12336L40.8739 5.00204L38.7526 2.88072L36.6313 5.00204ZM30.2757 11.3576L28.1544 9.23627L26.033 11.3576L28.1544 13.479L30.2757 11.3576ZM12.2324 22.7689L14.3537 20.6475L12.2324 18.5263L10.1111 20.6475L12.2324 22.7689ZM1.02844 33.9729L-1.09288 31.8516L-1.09288 31.8516L1.02844 33.9729ZM17.2064 27.7426L19.3277 29.8639L21.449 27.7426L19.3276 25.6213L17.2064 27.7426ZM6.00228 38.9467L3.88096 36.8254H3.88096L6.00228 38.9467ZM1.02844 38.9467L-1.09288 41.068H-1.09288L1.02844 38.9467ZM36.168 4.53875L29.8125 10.8942L34.0551 15.1369L40.4106 8.78142L36.168 4.53875ZM42.0687 6.19682L40.4106 4.53877L36.168 8.78141L37.8261 10.4395L42.0687 6.19682ZM33.7788 18.7292L42.0687 10.4395L37.8261 6.19681L29.5362 14.4866L33.7788 18.7292ZM28.0444 21.3078C30.2087 21.1787 32.2462 20.2619 33.7788 18.7292L29.5362 14.4866C29.0405 14.9822 28.3849 15.2768 27.687 15.3185L28.0444 21.3078ZM27.9271 21.3366C27.977 21.3165 28.0166 21.3095 28.0445 21.3078L27.6869 15.3185C26.9899 15.3601 26.316 15.5173 25.6875 15.7702L27.9271 21.3366ZM19.3009 15.2896L24.686 20.6747L28.9286 16.4321L23.5435 11.047L19.3009 15.2896ZM18.6677 11.9311C18.666 11.9586 18.6591 11.9985 18.6386 12.0496L24.2058 14.287C24.4579 13.6596 24.6154 12.9862 24.657 12.2886L18.6677 11.9311ZM21.2463 6.19674C19.7135 7.72954 18.7972 9.767 18.6677 11.9307L24.657 12.289C24.6988 11.5905 24.9935 10.9349 25.489 10.4394L21.2463 6.19674ZM29.5362 -2.09312L21.2463 6.19674L25.489 10.4394L33.7788 2.14952L29.5362 -2.09312ZM35.4367 -0.43523L33.7788 -2.09312L29.5362 2.14952L31.1941 3.80741L35.4367 -0.43523ZM29.0812 10.1629L35.4367 3.80743L31.1941 -0.435242L24.8385 5.92024L29.0812 10.1629ZM30.7391 7.57822L29.0812 5.92025L24.8385 10.1629L26.4965 11.8209L30.7391 7.57822ZM32.852 1.22274L26.4965 7.57822L30.7391 11.8209L37.0946 5.46538L32.852 1.22274ZM38.7526 2.88072L37.0946 1.22274L32.852 5.46538L34.51 7.12336L38.7526 2.88072ZM32.397 13.4789L38.7526 7.12336L34.51 2.88072L28.1544 9.23627L32.397 13.4789ZM34.055 10.8942L32.397 9.23622L28.1544 13.479L29.8125 15.1369L34.055 10.8942ZM10.1111 20.6475L-1.09288 31.8516L3.14976 36.0942L14.3538 24.8902L10.1111 20.6475ZM19.3276 25.6213L14.3537 20.6475L10.1112 24.8902L15.0851 29.864L19.3276 25.6213ZM8.1236 41.068L19.3277 29.8639L15.085 25.6213L3.88096 36.8254L8.1236 41.068ZM-1.09288 41.068C1.3172 43.4781 5.47123 43.7204 8.1236 41.068L3.88096 36.8254C3.78458 36.9218 3.66684 36.9696 3.51996 36.9672C3.35416 36.9646 3.22156 36.8972 3.14976 36.8254L-1.09288 41.068ZM-1.09288 31.8516C-3.63571 34.3944 -3.63571 38.5252 -1.09288 41.068L3.14976 36.8254C2.95008 36.6257 2.95008 36.2939 3.14976 36.0942L-1.09288 31.8516Z" fill="#DF136C" mask="url(#path-2-inside-1)"/>
</svg>
