<svg width="44" height="37" viewBox="0 0 44 37" fill="none" xmlns="http://www.w3.org/2000/svg">
<path d="M1.5 4C1.5 2.61929 2.61929 1.5 4 1.5H40C41.3807 1.5 42.5 2.61929 42.5 4V17C42.5 18.3807 41.3807 19.5 40 19.5H4C2.61929 19.5 1.5 18.3807 1.5 17V4Z" fill="white" stroke="#152C5B" stroke-width="3"/>
<path d="M3 13.5H42" stroke="#152C5B" stroke-width="3" stroke-linecap="round"/>
<path fill-rule="evenodd" clip-rule="evenodd" d="M10.6711 22.6583C11.4121 23.0288 11.7125 23.9298 11.342 24.6708L5.84197 35.6708C5.47149 36.4117 4.57048 36.7121 3.82951 36.3416C3.08854 35.9711 2.7882 35.0701 3.15869 34.3291L8.65869 23.3291C9.02917 22.5882 9.93018 22.2878 10.6711 22.6583ZM33.3294 22.6584C32.5885 23.0288 32.2881 23.9299 32.6586 24.6708L38.1586 35.6708C38.5291 36.4118 39.4301 36.7121 40.1711 36.3416C40.912 35.9712 41.2124 35.0701 40.8419 34.3292L35.3419 23.3292C34.9714 22.5882 34.0704 22.2879 33.3294 22.6584ZM20.5002 24C20.5002 23.1716 21.1718 22.5 22.0002 22.5C22.8287 22.5 23.5002 23.1716 23.5002 24V35C23.5002 35.8284 22.8287 36.5 22.0002 36.5C21.1718 36.5 20.5002 35.8284 20.5002 35V24Z" fill="#152C5B"/>
<path d="M11 7.5H33" stroke="#DF136C" stroke-width="3" stroke-linecap="round"/>
</svg>
