<svg width="25" height="25" viewBox="0 0 25 25" fill="none" xmlns="http://www.w3.org/2000/svg">
<path d="M10.6027 2.27158C11.2014 0.428962 13.8083 0.428962 14.407 2.27158L15.8922 6.8426C16.1599 7.66665 16.9278 8.22457 17.7943 8.22457H22.6006C24.538 8.22457 25.3436 10.7038 23.7761 11.8426L19.8878 14.6676C19.1868 15.1769 18.8935 16.0797 19.1612 16.9037L20.6465 21.4747C21.2452 23.3174 19.1362 24.8496 17.5688 23.7108L13.6804 20.8858C12.9795 20.3765 12.0303 20.3765 11.3293 20.8858L7.44095 23.7108C5.87352 24.8496 3.76456 23.3174 4.36326 21.4747L5.84848 16.9037C6.11623 16.0797 5.82291 15.1769 5.12193 14.6676L1.23359 11.8426C-0.333834 10.7038 0.471717 8.22457 2.40916 8.22457H7.21542C8.08187 8.22457 8.84978 7.66665 9.11753 6.8426L10.6027 2.27158Z" fill="#F0AB23"/>
</svg>
